<svg id="ewiMBs4h9CH1" xmlns="http://www.w3.org/2000/svg" xmlns:xlink="http://www.w3.org/1999/xlink" viewBox="409.289 277.787 512 114.301" shape-rendering="geometricPrecision" text-rendering="geometricPrecision"><g transform="matrix(5.71504 0 0 5.71504 409.289 277.787)"><g><path d="M27.9727,3.12324c-.3292-1.23001-1.2959-2.196617-2.5259-2.525874C23.2197,0,14.285,0,14.285,0s-8.93458,0-11.16177.597366c-1.23.329257-2.196607,1.295864-2.525864,2.525874C0,5.35042,0,10,0,10s0,4.6496.597366,6.8768c.329257,1.23,1.295864,2.1966,2.525864,2.5258C5.35042,20,14.285,20,14.285,20s8.9347,0,11.1618-.5974c1.23-.3292,2.1967-1.2958,2.5259-2.5258.5974-2.2272.5974-6.8768.5974-6.8768s-.0024-4.64958-.5974-6.87676Z" fill="#f00"/><path d="M11.4253,14.2854l7.4224-4.285-7.4224-4.28507v8.57007Z" fill="#fff"/></g><g><g><path d="M40.4755,3.68758h-2.7987v14.87532h-2.7587v-14.87532h-2.7987v-2.26717h8.3561v2.26717Z" fill="#000"/><path d="M42.8154,18.5634h-2.206L40.3648,17.03h-.0611v-10.99484h2.5117v12.52824Z" transform="translate(-.524931-.133248)" fill="#000"/><path d="M56.8154,18.5634h-2.206L54.3648,17.03h-.0611c-.5998,1.1571-1.4982,1.7356-2.6976,1.7356-.8302,0-1.444-.2728-1.8391-.816-.3951-.5457-.5927-1.397-.5927-2.5541v-9.35799h2.8199v9.19329c0,.5598.0611.9572.1834,1.1948s.3269.3574.6138.3574c.2446,0,.4798-.0752.7056-.2257.2258-.1506.3904-.3411.5009-.5715v-9.95064h2.8175v12.52824Z" transform="matrix(-1 0 0-1 101.367 24.5796)" fill="#000"/><path d="M56.8154,18.5634l-1.383696-.11768L54.3648,17.03h-.0611c-.5998,1.1571-1.4982,1.7356-2.6976,1.7356-.8302,0-1.444-.2728-1.8391-.816-.3951-.5457-.5927-1.397-.5927-2.5541v-9.35799h2.8199v9.19329c0,.5598.0611.9572.1834,1.1948s.3269.3574.6138.3574c.2446,0,.4798-.0752.7056-.2257.2258-.1506.3904-.3411.5009-.5715v-9.95064h2.8175v12.52824Z" transform="matrix(-1 0 0-1 106.126 24.6759)" fill="#000"/><path d="M64.4755,3.68758h-2.7987v14.87532h-2.7587v-14.87532h-2.7987v-2.26717h8.3561v2.26717Z" fill="#000"/><path d="M71.2768,18.5634h-2.206L68.8262,17.03h-.0611c-.5997,1.1571-1.4981,1.7356-2.6976,1.7356-.8302,0-1.444-.2728-1.8391-.816-.3951-.5457-.5927-1.397-.5927-2.5541v-9.35799h2.8199v9.19329c0,.5598.0611.9572.1834,1.1948s.3269.3574.6139.3574c.2445,0,.4797-.0752.7055-.2257.2258-.1506.3904-.3411.5009-.5715v-9.95064h2.8175v12.52824Z" fill="#000"/><path d="M80.609,8.0387c-.1717-.79021-.4469-1.36171-.8278-1.71684-.381-.35512-.9055-.53151-1.5734-.53151-.5174,0-1.0019.14581-1.4511.43979s-.7973.67733-1.0419,1.15475h-.0211v-6.599245h-2.7164v17.775155h2.3283l.2869-1.1853h.0612c.2187.4233.5456.7549.9807,1.0019.4351.2446.9196.3669,1.4511.3669.9525,0,1.6557-.4398,2.1049-1.3171.4492-.8796.6749-2.2507.6749-4.118v-1.9826c0-1.39938-.087-2.49768-.2563-3.2879Zm-2.5847,5.1105c0,.9125-.0376,1.6275-.1129,2.1449-.0752.5174-.1999.8867-.3786,1.103-.1764.2187-.4163.3269-.715.3269-.2328,0-.4468-.0541-.6444-.1646-.1975-.1082-.3574-.2728-.4797-.4892v-7.10958c.094-.34102.2587-.61853.4915-.83725.2305-.21872.4845-.32691.7549-.32691.287,0,.508.11289.6633.33632.1575.22577.2657.60207.3269,1.13358.0611.53151.0917,1.28644.0917,2.26714v1.6157h.0023Z" fill="#000"/><path d="M84.8657,13.8712c0,.8043.0235,1.4064.0706,1.8086.047.4021.1458.6938.2963.8796.1505.1834.381.2751.6938.2751.421,0,.7126-.1646.8678-.4915.1576-.3269.2423-.8725.2564-1.6345l2.4318.1434c.0141.1082.0211.2587.0211.4492c0,1.1571-.3175,2.0226-.9501,2.5941s-1.5287.8584-2.6858.8584c-1.3899,0-2.3636-.4351-2.921-1.3076-.5597-.8725-.8372-2.2201-.8372-4.0452v-2.1872c0-1.87908.2893-3.25255.8678-4.11802.5786-.86548,1.5687-1.29822,2.9727-1.29822.9666,0,1.7098.17639,2.2272.53152s.8819.90545,1.0936,1.65569.3175,1.78504.3175,3.10673v2.1449h-4.7225v.635Zm.3575-5.90309c-.1435.17638-.2375.46566-.2869.86782-.0471.40217-.0706,1.01129-.0706,1.82977v.8984h2.0626v-.8984c0-.80437-.0282-1.41349-.0823-1.82977s-.1529-.7079-.2964-.87958C86.4062,7.78702,86.1851,7.7,85.8864,7.7c-.301.00235-.5221.09172-.6632.26811Z" fill="#000"/></g></g></g></svg>
